HIERARCHY
ROOT Hips
{
	OFFSET -0.001795 -0.223333 0.028219
	CHANNELS 6 Xposition Yposition Zposition Zrotation Yrotation Xrotation 
	JOINT LeftUpLeg
	{
		OFFSET 0.069520 -0.091406 -0.006815
		CHANNELS 3 Zrotation Yrotation Xrotation
		JOINT LeftLeg
		{
			OFFSET 0.034277 -0.375199 -0.004496
			CHANNELS 3 Zrotation Yrotation Xrotation
			JOINT LeftFoot
			{
				OFFSET -0.013596 -0.397961 -0.043693
				CHANNELS 3 Zrotation Yrotation Xrotation
				JOINT LeftToe
				{
					OFFSET 0.026358 -0.055791 0.119288
					CHANNELS 3 Zrotation Yrotation Xrotation
					End Site
					{
						OFFSET 0.000000 0.000000 0.000000
					}
				}
			}
		}
	}
	JOINT RightUpLeg
	{
		OFFSET -0.067670 -0.090522 -0.004320
		CHANNELS 3 Zrotation Yrotation Xrotation
		JOINT RightLeg
		{
			OFFSET -0.038290 -0.382569 -0.008850
			CHANNELS 3 Zrotation Yrotation Xrotation
			JOINT RightFoot
			{
				OFFSET 0.015774 -0.398415 -0.042312
				CHANNELS 3 Zrotation Yrotation Xrotation
				JOINT RightToe
				{
					OFFSET -0.025372 -0.048144 0.123348
					CHANNELS 3 Zrotation Yrotation Xrotation
					End Site
					{
						OFFSET 0.000000 0.000000 0.000000
					}
				}
			}
		}
	}
	JOINT Spine
	{
		OFFSET -0.002533 0.108963 -0.026696
		CHANNELS 3 Zrotation Yrotation Xrotation
		JOINT Spine1
		{
			OFFSET 0.005487 0.135180 0.001092
			CHANNELS 3 Zrotation Yrotation Xrotation
			JOINT Spine2
			{
				OFFSET 0.001457 0.052922 0.025425
				CHANNELS 3 Zrotation Yrotation Xrotation
				JOINT Neck
				{
					OFFSET -0.002778 0.213870 -0.042857
					CHANNELS 3 Zrotation Yrotation Xrotation
					JOINT Head
					{
						OFFSET 0.005152 0.064970 0.051349
						CHANNELS 3 Zrotation Yrotation Xrotation
						End Site
						{
							OFFSET 0.000000 0.000000 0.000000
						}
					}
				}
				JOINT LeftShoulder
				{
					OFFSET 0.078845 0.121749 -0.034090
					CHANNELS 3 Zrotation Yrotation Xrotation
					JOINT LeftArm
					{
						OFFSET 0.090977 0.030469 -0.008868
						CHANNELS 3 Zrotation Yrotation Xrotation
						JOINT LeftForeArm
						{
							OFFSET 0.259612 -0.012772 -0.027456
							CHANNELS 3 Zrotation Yrotation Xrotation
							JOINT LeftHand
							{
								OFFSET 0.249234 0.008986 -0.001171
								CHANNELS 3 Zrotation Yrotation Xrotation
								End Site
								{
									OFFSET 0.000000 0.000000 0.000000
								}
							}
						}
					}
				}
				JOINT RightShoulder
				{
					OFFSET -0.081759 0.118833 -0.038615
					CHANNELS 3 Zrotation Yrotation Xrotation
					JOINT RightArm
					{
						OFFSET -0.096012 0.032551 -0.009143
						CHANNELS 3 Zrotation Yrotation Xrotation
						JOINT RightForeArm
						{
							OFFSET -0.253742 -0.013329 -0.021401
							CHANNELS 3 Zrotation Yrotation Xrotation
							JOINT RightHand
							{
								OFFSET -0.255298 0.007772 -0.005559
								CHANNELS 3 Zrotation Yrotation Xrotation
								End Site
								{
									OFFSET 0.000000 0.000000 0.000000
								}
							}
						}
					}
				}
			}
		}
	}
}
MOTION
Frames: 16
Frame Time: 0.050000
0.000000 0.934278 0.000000 -4.123101 -4.209543 8.675933 5.725424 -0.816461 -21.640134 -4.127568 0.574949 9.860898 6.772676 14.742599 6.692260 0.000000 0.000000 0.000000 -3.975014 1.658552 -20.021798 5.391962 -0.523547 10.524674 -6.649574 -17.750900 10.148156 0.000000 0.000000 0.000000 -3.160919 -0.019745 25.629357 2.906967 -0.322250 -20.447427 1.497553 2.908333 24.240230 -0.107930 2.052513 -32.809882 0.000000 0.000000 0.000000 -24.628245 -21.752842 11.740970 -55.209420 -43.236641 12.765424 17.004443 -48.446169 -4.371205 0.000000 0.000000 0.000000 13.296316 28.126099 13.172620 45.975870 47.442427 12.560320 -26.729213 45.440357 -8.281818 0.000000 0.000000 0.000000 
0.001366 0.933192 0.001781 -4.485643 -4.941134 9.511234 6.441175 -0.671571 -22.431878 -4.814898 0.763866 11.028636 6.356587 13.868029 5.498183 0.000000 0.000000 0.000000 -3.948993 1.701860 -20.080604 5.560091 -0.533040 9.063952 -6.150417 -17.000418 10.927076 0.000000 0.000000 0.000000 -3.471822 0.125383 26.234393 3.109333 -0.322439 -21.457767 1.566650 2.564640 25.092964 0.232935 1.856467 -34.681378 0.000000 0.000000 0.000000 -25.081749 -20.195109 11.191120 -54.660346 -43.138639 12.374296 18.245373 -49.557202 -4.827552 0.000000 0.000000 0.000000 10.286143 28.183625 12.350465 49.370855 49.040186 14.668745 -26.892706 46.676920 -8.593741 0.000000 0.000000 0.000000 
0.002597 0.932883 0.003422 -4.172266 -4.387044 9.660795 6.224949 -0.758173 -23.169809 -4.696105 0.741302 11.988501 7.043578 15.202634 6.306912 0.000000 0.000000 0.000000 -4.344222 1.680884 -20.650912 5.496199 -0.535761 9.976020 -6.252522 -17.117824 10.765881 0.000000 0.000000 0.000000 -2.752071 -0.107395 26.804550 1.765460 -0.006508 -20.853234 1.331601 2.638764 23.546280 0.929535 1.480846 -32.335459 0.000000 0.000000 0.000000 -25.975429 -20.305372 11.174399 -53.598181 -42.906220 12.082403 16.380867 -47.399742 -3.996629 0.000000 0.000000 0.000000 12.333902 27.757223 12.718814 47.622122 48.538751 13.823560 -24.190340 46.914120 -7.568516 0.000000 0.000000 0.000000 
0.003418 0.932816 0.005098 -4.273640 -4.520640 9.856327 6.074846 -0.780889 -23.220600 -4.714082 0.746382 11.851046 6.871177 14.877139 6.113229 0.000000 0.000000 0.000000 -4.355892 1.695704 -20.768642 4.689386 -0.391904 9.517120 -5.978203 -16.778095 12.027274 0.000000 0.000000 0.000000 -3.469677 0.111566 27.006311 2.528255 -0.204727 -20.726852 1.103743 2.780837 23.838412 1.319790 1.413089 -33.987258 0.000000 0.000000 0.000000 -25.067618 -20.712595 11.242614 -55.249146 -43.864242 13.209840 17.339913 -46.458937 -4.310940 0.000000 0.000000 0.000000 11.290873 28.185303 12.691152 47.949667 49.609598 14.519274 -23.146514 46.136871 -7.017631 0.000000 0.000000 0.000000 
0.003955 0.932274 0.006874 -4.274591 -4.884583 9.748537 6.356699 -0.709056 -23.374501 -4.744227 0.781273 12.533000 7.387269 15.774974 6.043934 0.000000 0.000000 0.000000 -4.460299 1.738818 -21.316218 4.778295 -0.394081 10.222606 -5.954096 -16.844013 12.563822 0.000000 0.000000 0.000000 -3.656537 0.194397 27.258784 2.342607 -0.223361 -19.540694 1.210349 3.178725 23.356938 1.753232 1.259810 -33.981127 0.000000 0.000000 0.000000 -23.915494 -21.064762 11.163165 -55.773623 -43.913055 13.519449 19.225025 -45.909884 -5.103193 0.000000 0.000000 0.000000 11.297761 27.679945 12.481544 49.822093 49.744754 15.489350 -23.681857 46.425680 -7.258343 0.000000 0.000000 0.000000 
0.004194 0.932556 0.008585 -4.379502 -4.926156 10.058620 6.645700 -0.657655 -23.552225 -5.027760 0.847430 12.470641 7.169270 15.372568 5.771267 0.000000 0.000000 0.000000 -4.450406 1.729718 -21.121406 4.521711 -0.350100 9.857588 -5.685223 -16.368644 12.558142 0.000000 0.000000 0.000000 -3.587030 0.183237 27.434418 2.260649 -0.170650 -20.154072 1.294640 3.327849 23.864918 2.230724 1.127243 -35.089664 0.000000 0.000000 0.000000 -23.534493 -21.582492 11.402937 -54.813267 -43.761810 13.039262 19.964043 -46.377277 -5.481731 0.000000 0.000000 0.000000 11.809713 27.882099 12.734228 49.746296 48.819787 14.948161 -23.066697 47.949692 -7.243905 0.000000 0.000000 0.000000 
0.004335 0.932481 0.010138 -4.370171 -5.064841 10.080790 6.783439 -0.622571 -23.501570 -4.923818 0.826453 12.404876 7.131699 15.303393 5.917845 0.000000 0.000000 0.000000 -4.340697 1.760207 -21.256076 4.406337 -0.325744 9.908533 -5.648259 -16.333452 12.627351 0.000000 0.000000 0.000000 -3.674343 0.221032 27.530486 2.391711 -0.242110 -19.447328 1.035159 3.438088 23.494481 2.127148 1.199410 -35.209972 0.000000 0.000000 0.000000 -22.917925 -21.713181 11.346979 -54.506204 -43.927168 13.069246 21.417203 -46.511967 -6.141132 0.000000 0.000000 0.000000 12.032166 28.144995 12.930215 51.256221 48.410603 15.429321 -23.611763 48.875764 -7.609605 0.000000 0.000000 0.000000 
0.004475 0.932886 0.011541 -4.251174 -4.927288 10.304019 6.622051 -0.665223 -23.474386 -5.040653 0.842489 12.177063 7.167876 15.373687 5.769746 0.000000 0.000000 0.000000 -4.415570 1.750013 -21.294435 4.280580 -0.311377 9.509467 -5.722996 -16.467006 12.738485 0.000000 0.000000 0.000000 -3.670027 0.219133 27.887711 2.330852 -0.207693 -19.723036 1.012949 3.299019 23.805859 1.864936 1.333713 -35.649569 0.000000 0.000000 0.000000 -22.411921 -21.956380 11.446050 -53.752959 -44.209285 12.924830 22.355799 -47.052144 -6.612353 0.000000 0.000000 0.000000 12.074950 28.035041 12.889197 52.317530 48.101489 15.686224 -23.204202 50.108722 -7.606048 0.000000 0.000000 0.000000 
0.004783 0.933281 0.012860 -4.194854 -5.161080 10.336187 6.595741 -0.653103 -23.027361 -4.993337 0.822303 11.538878 7.110666 15.259055 5.805162 0.000000 0.000000 0.000000 -4.408647 1.764321 -21.349296 4.263075 -0.305523 9.322105 -5.789997 -16.627582 12.848024 0.000000 0.000000 0.000000 -3.733299 0.262104 28.154544 2.354518 -0.230684 -19.461589 1.027561 3.528782 23.666021 1.540375 1.500437 -35.688792 0.000000 0.000000 0.000000 -22.027030 -22.210683 11.492359 -53.179440 -44.619093 12.959681 23.074555 -47.033241 -6.948946 0.000000 0.000000 0.000000 12.218404 28.269910 13.062503 52.833714 47.728134 15.737575 -23.135718 50.913067 -7.700294 0.000000 0.000000 0.000000 
0.005195 0.933780 0.014106 -4.081178 -5.298666 10.418937 6.354298 -0.688095 -22.716038 -4.927731 0.793624 10.850644 7.265528 15.547351 6.143736 0.000000 0.000000 0.000000 -4.513302 1.761854 -21.414706 4.302389 -0.313006 9.019126 -5.915482 -16.902961 13.138982 0.000000 0.000000 0.000000 -3.799021 0.297155 28.247042 2.250980 -0.220033 -19.148013 1.115657 3.466021 23.699162 0.814444 1.809690 -35.835972 0.000000 0.000000 0.000000 -21.366300 -22.255227 11.455507 -52.990461 -44.845272 13.006898 24.054809 -47.336456 -7.403494 0.000000 0.000000 0.000000 12.186897 28.451313 13.122526 53.571874 47.467952 15.898244 -23.228063 51.798670 -7.885181 0.000000 0.000000 0.000000 
0.005696 0.933941 0.015174 -4.005413 -5.084808 10.695520 6.162012 -0.736705 -22.629391 -4.840296 0.755595 10.332579 7.182213 15.418269 6.222452 0.000000 0.000000 0.000000 -4.808708 1.742997 -21.722544 4.458576 -0.344750 8.922031 -6.014603 -17.083303 13.386625 0.000000 0.000000 0.000000 -3.693661 0.255261 28.445492 2.223716 -0.202922 -19.235983 1.150806 3.182961 23.760546 0.619229 1.884439 -36.172470 0.000000 0.000000 0.000000 -21.301042 -22.277227 11.527061 -52.660751 -45.202877 13.067271 24.625438 -47.534824 -7.652090 0.000000 0.000000 0.000000 12.455531 28.655878 13.267522 53.797626 47.158823 15.802265 -22.972272 53.094845 -7.988917 0.000000 0.000000 0.000000 
0.006149 0.933891 0.015974 -3.923024 -4.793190 11.021485 5.981040 -0.789738 -22.683202 -4.868485 0.745290 9.990814 7.118924 15.334127 6.351838 0.000000 0.000000 0.000000 -5.080336 1.734123 -22.186553 4.632751 -0.379929 8.949675 -6.268684 -17.523087 13.609345 0.000000 0.000000 0.000000 -3.595612 0.209533 28.643550 2.237660 -0.196106 -19.294317 1.116425 2.834500 23.743440 -0.043356 2.163115 -36.651044 0.000000 0.000000 0.000000 -21.115533 -22.362108 11.618179 -52.317345 -45.507655 13.101206 24.961644 -47.785751 -7.816270 0.000000 0.000000 0.000000 12.628968 28.948514 13.428111 53.658831 47.118104 15.708900 -23.271001 53.841857 -8.281478 0.000000 0.000000 0.000000 
0.006524 0.933630 0.016623 -3.842647 -4.507568 11.402014 5.755771 -0.853358 -22.912999 -4.838682 0.724240 9.688048 7.134501 15.391021 6.458599 0.000000 0.000000 0.000000 -5.303721 1.741123 -22.806507 4.843932 -0.421076 9.083858 -6.554579 -18.024678 13.947373 0.000000 0.000000 0.000000 -3.524860 0.171658 28.829665 2.179297 -0.165779 -19.444133 1.092513 2.482980 23.776365 -0.514568 2.348119 -37.030735 0.000000 0.000000 0.000000 -20.814105 -22.404244 11.667849 -52.270019 -46.044982 13.372824 25.123387 -47.793129 -7.852488 0.000000 0.000000 0.000000 12.622340 29.026136 13.443642 54.320247 47.315084 16.079186 -23.465863 54.824147 -8.537943 0.000000 0.000000 0.000000 
0.006790 0.933485 0.017195 -3.774136 -4.463970 11.531050 5.707144 -0.868009 -22.999512 -4.880254 0.730382 9.641262 7.042335 15.224079 6.321932 0.000000 0.000000 0.000000 -5.489914 1.738895 -23.149511 4.944820 -0.438809 9.232389 -6.618307 -18.135343 13.970542 0.000000 0.000000 0.000000 -3.640318 0.212288 29.307504 2.352950 -0.208205 -19.458712 0.963406 2.358533 23.565081 -0.794101 2.457673 -37.116648 0.000000 0.000000 0.000000 -21.123203 -22.414069 11.756243 -51.618843 -46.291022 13.263836 25.360559 -48.012472 -7.994773 0.000000 0.000000 0.000000 13.447655 29.284758 13.772847 53.592659 47.472998 15.856775 -23.388024 55.484922 -8.632925 0.000000 0.000000 0.000000 
0.006952 0.933625 0.017720 -3.749396 -4.519372 11.688390 5.587031 -0.886210 -22.905608 -4.823107 0.709999 9.180411 7.137762 15.402534 6.492642 0.000000 0.000000 0.000000 -5.640247 1.735811 -23.340992 5.053600 -0.456648 9.093211 -6.657479 -18.231231 14.197572 0.000000 0.000000 0.000000 -3.704093 0.243308 29.579484 2.288071 -0.192034 -19.430880 1.012617 2.366223 23.512952 -0.996078 2.538874 -37.125357 0.000000 0.000000 0.000000 -21.341579 -22.594290 11.913650 -50.990833 -46.703316 13.235565 25.650207 -48.349209 -8.185999 0.000000 0.000000 0.000000 13.702249 29.506033 13.956368 52.833515 47.779590 15.696271 -23.875783 56.179710 -9.013718 0.000000 0.000000 0.000000 
0.007047 0.933631 0.018212 -3.769748 -4.813526 11.895620 5.456095 -0.897176 -23.050861 -4.699228 0.688440 9.006767 7.219096 15.537696 6.627734 0.000000 0.000000 0.000000 -5.711093 1.765970 -23.656454 5.058515 -0.450449 9.104785 -6.543107 -18.079965 14.189699 0.000000 0.000000 0.000000 -3.882950 0.325753 29.436081 2.337922 -0.222467 -19.152716 1.041004 2.433991 23.389487 -1.056423 2.547140 -36.990579 0.000000 0.000000 0.000000 -21.656272 -22.650874 12.031533 -50.501064 -46.976787 13.194651 25.844582 -48.685872 -8.333304 0.000000 0.000000 0.000000 14.132051 29.648798 14.128044 52.074213 47.993667 15.483784 -24.453134 56.492535 -9.390839 0.000000 0.000000 0.000000 
